<!-- Generated by IcoMoon.io -->
<svg version="1.1" xmlns="http://www.w3.org/2000/svg" width="32" height="32" viewBox="0 0 32 32">
<title>Activity</title>
<path d="M21.371 3.049c-0.064 0.397-0.095 0.794-0.095 1.192 0 3.575 2.892 6.465 6.451 6.465 0.397 0 0.779-0.046 1.176-0.11v12.821c0 5.388-3.178 8.582-8.58 8.582h-11.741c-5.404 0-8.582-3.194-8.582-8.582v-11.757c0-5.402 3.178-8.612 8.582-8.612h12.79zM21.691 12.71c-0.431-0.048-0.858 0.143-1.114 0.493l-3.844 4.973-4.403-3.464c-0.27-0.207-0.588-0.288-0.906-0.254-0.316 0.048-0.602 0.221-0.794 0.475l-4.702 6.119-0.097 0.143c-0.27 0.507-0.143 1.158 0.334 1.509 0.222 0.143 0.461 0.238 0.731 0.238 0.367 0.016 0.715-0.176 0.937-0.477l3.988-5.134 4.529 3.402 0.143 0.094c0.508 0.27 1.144 0.145 1.509-0.334l4.592-5.925-0.064 0.032c0.254-0.35 0.302-0.794 0.127-1.192-0.173-0.397-0.556-0.667-0.968-0.699zM27.95 0.22c2.113 0 3.829 1.716 3.829 3.829s-1.716 3.829-3.829 3.829c-2.113 0-3.829-1.716-3.829-3.829s1.716-3.829 3.829-3.829z"></path>
</svg>
