<!-- Generated by IcoMoon.io -->
<svg version="1.1" xmlns="http://www.w3.org/2000/svg" width="32" height="32" viewBox="0 0 32 32">
<title>Chart</title>
<path d="M23.308 0.221c5.404 0 8.455 3.065 8.471 8.469v14.841c0 5.402-3.067 8.469-8.471 8.469h-14.839c-5.404 0-8.469-3.067-8.469-8.469v-14.841c0-5.404 3.065-8.469 8.469-8.469h14.839zM16.684 6.783c-0.447-0.27-0.987-0.27-1.414 0-0.431 0.269-0.667 0.763-0.621 1.255v16.191c0.081 0.683 0.651 1.192 1.319 1.192 0.685 0 1.255-0.508 1.319-1.192v-16.191c0.064-0.493-0.173-0.987-0.602-1.255zM9.264 11.995c-0.429-0.27-0.971-0.27-1.398 0-0.431 0.27-0.667 0.761-0.62 1.255v10.98c0.062 0.683 0.634 1.192 1.317 1.192 0.685 0 1.255-0.508 1.319-1.192v-10.98c0.049-0.494-0.191-0.985-0.618-1.255zM23.976 17.763c-0.427-0.27-0.968-0.27-1.413 0-0.431 0.27-0.667 0.745-0.604 1.255v5.212c0.064 0.683 0.634 1.192 1.319 1.192 0.667 0 1.238-0.508 1.319-1.192v-5.212c0.046-0.51-0.191-0.985-0.621-1.255z"></path>
</svg>
