<!-- Generated by IcoMoon.io -->
<svg version="1.1" xmlns="http://www.w3.org/2000/svg" width="30" height="32" viewBox="0 0 30 32">
<title>fa-dribbble</title>
<path opacity="0.4" fill="#000" d="M20.224 27.773c-1.552 0.648-3.241 1.021-5.029 1.021-3.123 0-5.971-1.12-8.211-2.946 0 0 0.177 0.118 0.295 0.216 2.475-5.382 10.116-8.054 10.116-8.054 0.020 0 0.059-0.020 0.079-0.020 1.807 4.714 2.554 8.643 2.75 9.782zM16.59 15.85c-0.157 0.059-0.334 0.098-0.511 0.157 0 0-6.954 2.239-10.47 8.505-2.043-2.279-3.3-5.304-3.3-8.604 0-0.137 0-0.275 0.020-0.412 0.216 0 6.58 0.157 13.22-1.827 0.373 0.727 0.727 1.454 1.041 2.18zM14.488 11.685c-6.188 1.63-11.57 1.571-11.904 1.571 0.845-3.988 3.516-7.307 7.111-8.996 0.177 0.236 2.554 3.457 4.793 7.425zM27.924 17.952c-0.589 3.595-2.632 6.698-5.52 8.643-0.137-0.766-0.825-4.557-2.514-9.212 4.164-0.648 7.759 0.491 8.034 0.57zM12.111 3.396c-0.020 0-0.039 0.020-0.039 0.020 0.020-0.020 0.020-0.020 0.039-0.020zM23.7 6.244c-0.039 0.059-1.866 2.848-6.718 4.655-2.2-4.046-4.636-7.248-4.832-7.504 0.982-0.236 2.004-0.373 3.045-0.373 3.261 0 6.246 1.218 8.505 3.221zM28.081 15.771c-0.157-0.020-4.537-0.982-8.977-0.412-0.098-0.216-0.177-0.452-0.275-0.668-0.275-0.629-0.57-1.257-0.864-1.866 5.087-2.082 7.15-5.068 7.189-5.107 1.807 2.2 2.887 5.009 2.927 8.054zM30.281 15.909c0-8.329-6.757-15.086-15.086-15.086s-15.086 6.757-15.086 15.086c0 8.329 6.757 15.086 15.086 15.086s15.086-6.757 15.086-15.086z"></path>
</svg>
