<!-- Generated by IcoMoon.io -->
<svg version="1.1" xmlns="http://www.w3.org/2000/svg" width="30" height="32" viewBox="0 0 30 32">
<title>fa-facebook-square</title>
<path opacity="0.4" fill="#000" d="M24.624 0.823h-18.857c-3.123 0-5.657 2.534-5.657 5.657v18.857c0 3.123 2.534 5.657 5.657 5.657h10.45v-11.688h-3.929v-4.557h3.929v-3.359c0-3.889 2.396-6.011 5.873-6.011 1.65 0 3.084 0.118 3.496 0.177v4.066l-2.396 0.020c-1.905 0-2.259 0.884-2.259 2.2v2.907h4.498l-0.589 4.557h-3.909v11.688h3.693c3.123 0 5.657-2.534 5.657-5.657v-18.857c0-3.123-2.534-5.657-5.657-5.657z"></path>
</svg>
