<!-- Generated by IcoMoon.io -->
<svg version="1.1" xmlns="http://www.w3.org/2000/svg" width="42" height="32" viewBox="0 0 42 32">
<title>fa-twitter</title>
<path opacity="0.4" fill="#000" d="M40.345 3.904c-1.424 0.614-2.971 1.056-4.567 1.228 1.645-0.982 2.897-2.529 3.487-4.371-1.522 0.908-3.241 1.571-5.033 1.915-1.449-1.547-3.511-2.504-5.795-2.504-4.395 0-7.931 3.56-7.931 7.931 0 0.614 0.074 1.228 0.196 1.817-6.58-0.344-12.449-3.487-16.353-8.299-0.688 1.179-1.080 2.529-1.080 4.002 0 2.75 1.4 5.181 3.536 6.605-1.301-0.049-2.529-0.417-3.585-1.007 0 0.025 0 0.074 0 0.098 0 3.855 2.725 7.047 6.359 7.783-0.663 0.172-1.375 0.27-2.087 0.27-0.516 0-1.007-0.049-1.498-0.123 1.007 3.143 3.929 5.426 7.415 5.5-2.725 2.136-6.138 3.388-9.846 3.388-0.663 0-1.277-0.025-1.915-0.098 3.511 2.259 7.685 3.56 12.179 3.56 14.585 0 22.565-12.080 22.565-22.565 0-0.344 0-0.688-0.025-1.031 1.547-1.129 2.897-2.529 3.978-4.1z"></path>
</svg>
