<!-- Generated by IcoMoon.io -->
<svg version="1.1" xmlns="http://www.w3.org/2000/svg" width="42" height="32" viewBox="0 0 42 32">
<title>Video</title>
<path d="M20.895 0.184c5.109 0 8.676 3.521 8.676 8.566v14.509c0 5.046-3.567 8.566-8.676 8.566h-12.218c-5.109 0-8.676-3.521-8.676-8.566v-14.509c0-5.046 3.567-8.566 8.676-8.566h12.218zM37.882 5.202c0.926-0.471 2.012-0.422 2.896 0.135 0.884 0.555 1.411 1.518 1.411 2.572v16.193c0 1.056-0.527 2.017-1.411 2.572-0.483 0.302-1.023 0.456-1.567 0.456-0.454 0-0.907-0.107-1.331-0.323l-3.124-1.576c-1.156-0.587-1.873-1.765-1.873-3.073v-12.306c0-1.311 0.717-2.489 1.873-3.071l3.126-1.578z"></path>
</svg>
